# xmcd
#
# Track frame offsets:
#	225
#	13847
#	23047
#	35299
#	46153
#	65198
#	76609
#	88849
#	109344
#	119485
#	141089
#	152986
#	165928
#	179381
#	191689
#	202509
#
# Disc length: 2870 seconds
#
# Revision: 1
# Processed by: cddbd v1.5.1PL0 Copyright (c) Steve Scherf et al.
# Submitted via: audiograbber 1.83.01
#
DISCID=cd0b3310
DTITLE=Taxmeni - Master Serie
DYEAR=1998
DGENRE=Country
TTITLE0=Nad nami vlajka hvezdnata
TTITLE1=Kazda holka mava
TTITLE2=Lilly Marlene
TTITLE3=On je cvok
TTITLE4=Dedeckovy hodiny
TTITLE5=Pan dalnice
TTITLE6=Bitva o New Orleans
TTITLE7=Jo, to jsem jeste zil
TTITLE8=Tulacka
TTITLE9=Buraky
TTITLE10=Haleluja, ja jdu za tebou
TTITLE11=John Brown´s body
TTITLE12=Nocni jizda
TTITLE13=Zustavam
TTITLE14=Johny az pujde zpet
TTITLE15=Valcik na rozloucenou
EXTD=
EXTT0=
EXTT1=
EXTT2=
EXTT3=
EXTT4=
EXTT5=
EXTT6=
EXTT7=
EXTT8=
EXTT9=
EXTT10=
EXTT11=
EXTT12=
EXTT13=
EXTT14=
EXTT15=
PLAYORDER=
